<svg id="svg" version="1.1" xmlns="http://www.w3.org/2000/svg" xmlns:xlink="http://www.w3.org/1999/xlink" width="400" height="400" viewBox="0, 0, 400,400"><g id="svgg"><path id="path0" d="M187.848 5.081 C 71.932 15.071,-13.215 116.103,1.814 225.823 C 18.134 344.966,143.522 421.876,260.156 384.283 C 391.813 341.847,440.736 191.155,357.592 84.159 C 317.190 32.166,247.935 -0.098,187.848 5.081 M204.915 16.502 C 206.575 17.466,207.383 18.446,208.577 20.948 L 210.108 24.157 214.295 24.504 C 284.691 30.351,353.150 86.989,372.648 155.515 C 384.915 198.630,377.957 253.091,355.967 286.069 C 355.500 286.769,353.314 290.076,351.108 293.418 C 314.801 348.431,244.730 381.372,180.759 373.499 C 78.483 360.912,6.857 272.910,21.414 177.722 C 31.699 110.468,80.090 54.434,146.835 32.489 C 159.526 28.316,181.782 23.797,189.643 23.797 C 190.022 23.797,190.551 23.007,190.817 22.040 C 192.553 15.752,199.156 13.159,204.915 16.502 M199.550 23.902 C 199.301 24.557,198.935 26.795,198.736 28.876 C 198.537 30.956,198.305 32.775,198.219 32.918 C 198.134 33.061,197.917 34.656,197.739 36.462 C 197.561 38.269,197.210 40.544,196.959 41.519 C 196.708 42.494,196.347 45.059,196.156 47.219 L 195.809 51.146 197.635 50.383 C 200.724 49.092,200.829 49.514,198.107 52.278 C 195.960 54.458,193.924 57.711,193.924 58.961 C 193.924 59.104,195.006 59.082,196.329 58.912 L 198.734 58.603 196.901 60.567 C 195.226 62.361,192.405 66.715,192.405 67.505 C 192.405 67.685,193.829 67.685,195.570 67.506 L 198.734 67.179 195.696 70.445 C 192.924 73.426,189.472 78.755,189.983 79.266 C 190.099 79.382,190.975 79.252,191.929 78.979 C 192.883 78.705,194.775 78.481,196.133 78.481 L 198.602 78.481 195.124 81.918 C 193.143 83.875,190.917 86.719,189.953 88.524 L 188.260 91.693 190.965 91.386 C 192.453 91.216,194.184 90.974,194.810 90.846 C 196.323 90.537,196.264 90.814,194.130 94.028 C 191.548 97.918,188.662 104.304,187.064 109.664 L 185.692 114.265 183.773 114.210 C 182.718 114.179,181.949 114.306,182.064 114.492 C 182.179 114.678,181.920 114.966,181.490 115.131 C 181.041 115.303,180.839 115.218,181.016 114.931 C 181.186 114.656,181.103 114.430,180.832 114.430 C 180.560 114.430,180.242 114.601,180.125 114.810 C 180.008 115.019,179.992 114.880,180.089 114.501 C 180.205 114.046,179.985 113.919,179.443 114.127 C 178.831 114.361,178.703 114.228,178.943 113.605 C 179.213 112.900,179.141 112.870,178.480 113.418 C 177.240 114.447,177.130 113.780,178.013 110.578 C 178.465 108.937,178.949 107.100,179.089 106.496 C 179.229 105.892,179.785 104.923,180.324 104.344 C 180.864 103.765,181.163 103.291,180.990 103.291 C 180.585 103.291,183.788 99.178,184.802 98.396 C 185.223 98.070,185.434 97.670,185.270 97.507 C 185.106 97.343,184.439 97.671,183.788 98.236 C 182.643 99.229,181.439 99.329,181.595 98.418 C 181.636 98.174,181.820 96.848,182.002 95.471 C 182.185 94.094,182.758 91.132,183.276 88.888 C 183.794 86.645,184.344 84.013,184.497 83.038 C 184.651 82.063,185.032 80.013,185.345 78.481 C 186.579 72.438,187.321 68.042,187.312 66.835 L 187.301 65.570 186.605 66.849 C 185.684 68.541,180.743 83.480,178.990 89.873 C 178.226 92.658,176.616 98.468,175.413 102.785 C 171.818 115.684,169.299 125.083,168.347 129.157 C 167.553 132.554,167.282 133.061,166.004 133.543 C 164.340 134.171,164.551 133.646,162.795 141.519 C 162.050 144.861,161.096 148.869,160.676 150.425 L 159.912 153.256 156.032 153.847 C 150.831 154.638,151.153 154.722,149.669 152.189 C 147.495 148.480,140.424 141.739,134.937 138.145 C 132.152 136.321,126.114 132.375,121.519 129.375 C 100.298 115.522,96.761 103.571,112.287 98.176 C 127.882 92.757,134.598 74.435,125.839 61.200 C 124.025 58.458,123.809 58.684,123.713 63.419 C 123.471 75.317,118.607 79.932,105.644 80.564 C 82.595 81.688,70.259 94.633,71.006 116.912 C 71.416 129.128,73.993 135.076,87.096 154.044 C 88.584 156.199,89.704 158.021,89.585 158.095 C 89.465 158.168,87.658 159.075,85.570 160.111 C 66.995 169.323,56.203 184.449,53.996 204.367 L 53.417 209.586 50.886 211.180 C 43.988 215.524,31.392 225.554,31.392 226.703 C 31.392 230.331,39.573 235.283,50.000 237.966 L 52.152 238.520 52.152 258.678 L 52.152 278.835 55.063 283.464 C 60.672 292.381,73.015 305.836,78.098 308.573 C 80.185 309.697,79.593 309.862,94.684 303.946 C 120.453 293.844,132.857 287.543,144.293 278.742 L 147.357 276.385 151.273 277.217 C 156.501 278.328,166.706 278.777,169.489 278.018 C 172.968 277.068,172.869 276.213,168.178 266.725 C 164.079 258.434,159.308 246.147,159.600 244.633 C 159.712 244.052,160.736 243.658,163.170 243.259 C 167.445 242.558,167.450 242.551,166.189 239.632 C 165.615 238.303,163.798 234.025,162.151 230.127 C 160.504 226.228,158.807 222.372,158.379 221.558 C 157.639 220.150,157.672 219.967,159.054 217.788 C 161.134 214.509,161.110 210.076,158.991 205.898 C 157.854 203.656,157.609 202.708,157.985 202.007 C 159.049 200.019,158.274 192.409,157.007 192.404 C 153.274 192.387,130.264 187.847,125.278 186.143 C 96.680 176.369,110.621 162.803,154.188 158.010 C 166.461 156.659,187.851 155.391,187.849 156.014 C 187.847 156.632,186.483 157.454,186.075 157.084 C 185.847 156.878,185.831 157.004,186.038 157.364 C 186.422 158.029,185.099 160.547,184.421 160.443 C 183.412 160.288,182.797 160.569,182.911 161.132 C 183.003 161.586,181.363 161.860,176.962 162.128 C 147.525 163.919,119.494 170.043,119.494 174.685 C 119.494 179.988,159.876 187.817,187.364 187.843 L 192.703 187.848 192.820 184.669 C 192.933 181.615,192.866 181.421,191.108 179.732 C 182.553 171.514,189.101 157.536,201.001 158.615 C 211.642 159.580,216.133 172.480,208.375 179.798 C 206.620 181.453,205.622 187.247,206.962 188.002 C 207.498 188.304,225.745 187.412,233.924 186.684 L 240.759 186.076 241.060 183.544 C 241.225 182.152,241.396 185.271,241.439 190.476 C 241.487 196.150,241.722 200.066,242.025 200.253 C 242.791 200.726,242.632 201.519,241.772 201.519 C 240.405 201.519,240.679 216.541,242.072 218.025 L 243.132 219.153 242.092 223.266 C 240.665 228.910,238.338 233.051,234.333 237.077 C 232.469 238.950,231.102 240.574,231.295 240.684 C 232.221 241.218,237.432 241.464,239.151 241.056 C 240.832 240.657,241.045 240.704,240.773 241.413 C 240.054 243.287,234.425 250.606,231.017 254.099 L 227.351 257.857 230.920 257.602 C 234.064 257.377,234.450 257.444,234.169 258.167 C 233.385 260.184,232.853 264.693,233.150 266.804 C 233.806 271.462,234.344 271.981,235.409 268.987 C 236.407 266.180,240.155 258.441,242.315 254.727 C 243.560 252.585,243.931 251.583,243.403 251.786 C 242.964 251.954,241.741 252.254,240.686 252.452 L 238.768 252.812 240.184 251.129 C 241.316 249.784,243.729 245.223,247.996 236.368 C 248.086 236.181,246.935 236.312,245.437 236.660 C 241.430 237.592,240.638 237.153,242.306 234.926 C 244.292 232.272,246.161 228.446,247.081 225.150 L 247.904 222.198 249.776 225.016 C 252.853 229.651,257.098 234.980,260.555 238.550 C 262.345 240.398,263.731 242.221,263.634 242.600 C 263.537 242.980,263.553 243.120,263.669 242.911 C 264.232 241.906,264.780 242.720,264.582 244.265 C 264.438 245.387,264.618 246.213,265.091 246.606 C 265.649 247.068,265.823 247.070,265.823 246.614 C 265.823 246.285,266.075 246.172,266.383 246.363 C 266.774 246.604,266.737 246.836,266.261 247.131 C 265.743 247.451,266.047 247.982,267.522 249.333 C 269.269 250.933,269.387 251.192,268.689 251.889 C 268.262 252.317,267.783 252.456,267.624 252.199 C 267.465 251.942,267.622 251.630,267.972 251.505 C 268.321 251.380,268.424 251.082,268.200 250.843 C 267.976 250.605,267.590 250.738,267.342 251.139 C 267.094 251.541,266.714 251.693,266.498 251.477 C 266.282 251.261,266.437 250.879,266.843 250.628 C 267.445 250.256,267.279 249.877,265.942 248.570 C 265.041 247.689,264.304 247.210,264.304 247.505 C 264.304 247.800,264.532 248.182,264.810 248.354 C 265.547 248.810,265.434 249.429,264.430 250.442 C 263.607 251.273,263.605 251.313,264.414 251.006 C 265.273 250.681,266.187 251.359,265.446 251.773 C 265.236 251.890,265.324 251.926,265.642 251.852 C 265.961 251.779,266.701 252.230,267.288 252.854 C 268.516 254.161,268.731 255.120,267.583 254.167 C 267.158 253.815,266.665 253.673,266.486 253.852 C 266.307 254.031,266.426 254.177,266.751 254.177 C 267.076 254.177,267.342 254.429,267.342 254.738 C 267.342 255.049,266.973 255.157,266.511 254.979 C 265.794 254.704,265.774 254.774,266.366 255.487 C 266.796 256.006,267.122 256.103,267.240 255.749 C 267.344 255.438,267.651 255.322,267.924 255.490 C 268.218 255.672,268.084 256.168,267.595 256.709 C 266.971 257.399,266.920 257.714,267.387 258.003 C 267.757 258.232,267.874 258.173,267.679 257.857 C 267.500 257.567,267.819 257.208,268.389 257.059 C 269.592 256.745,269.484 257.631,268.222 258.427 C 267.331 258.989,266.822 258.733,266.657 257.641 C 266.495 256.571,265.818 255.695,265.160 255.704 C 264.798 255.709,264.860 255.908,265.316 256.203 C 265.734 256.472,265.897 256.697,265.678 256.701 C 265.460 256.705,265.546 257.203,265.869 257.808 C 266.345 258.697,266.306 259.018,265.668 259.484 C 264.386 260.422,264.980 262.826,266.886 264.417 C 268.750 265.974,269.879 266.299,268.796 264.968 C 268.190 264.223,268.211 264.155,268.962 264.436 C 269.548 264.656,269.740 264.546,269.565 264.090 C 269.424 263.723,269.607 263.108,269.971 262.724 C 270.880 261.764,270.975 260.111,270.102 260.446 C 269.652 260.618,269.519 260.446,269.713 259.940 C 269.922 259.396,270.165 259.330,270.548 259.713 C 271.231 260.396,272.063 260.422,271.646 259.747 C 271.473 259.468,271.550 259.241,271.815 259.241 C 272.081 259.241,272.265 259.791,272.225 260.463 C 272.170 261.380,271.994 261.554,271.519 261.160 C 270.576 260.378,270.754 261.289,271.772 262.451 C 272.523 263.309,272.535 263.418,271.853 263.171 C 270.825 262.798,269.522 263.520,270.326 264.017 C 270.634 264.208,270.886 264.094,270.886 263.765 C 270.886 263.320,271.080 263.328,271.646 263.797 C 272.063 264.144,272.402 264.685,272.397 264.999 C 272.393 265.313,272.169 265.228,271.899 264.810 C 271.629 264.392,271.404 264.290,271.400 264.582 C 271.392 265.164,272.414 266.329,272.932 266.329 C 273.111 266.329,273.117 265.361,272.946 264.177 C 272.774 262.994,272.672 261.026,272.719 259.805 C 272.765 258.580,272.627 257.868,272.411 258.218 C 271.874 259.088,268.708 259.443,268.992 258.602 C 269.108 258.257,269.654 257.975,270.204 257.975 C 270.755 257.975,271.589 257.592,272.058 257.125 C 273.065 256.122,273.212 255.323,272.241 256.128 C 271.752 256.535,271.410 256.524,270.975 256.089 C 270.638 255.752,270.380 255.713,270.380 256.000 C 270.380 256.278,270.653 256.780,270.987 257.114 C 271.416 257.543,271.427 257.722,271.024 257.722 C 269.908 257.722,268.294 255.113,268.934 254.342 C 269.425 253.751,269.711 253.818,270.709 254.755 C 271.386 255.391,271.899 255.603,271.899 255.248 C 271.899 254.905,272.092 254.743,272.327 254.889 C 273.438 255.575,272.709 251.330,271.568 250.469 C 270.914 249.976,270.380 249.811,270.380 250.103 C 270.380 250.394,270.152 250.633,269.873 250.633 C 268.963 250.633,269.342 249.696,270.387 249.365 C 270.948 249.187,271.283 248.840,271.130 248.593 C 270.978 248.347,270.462 248.280,269.984 248.445 C 269.306 248.678,269.337 248.570,270.123 247.959 C 270.679 247.528,271.248 247.326,271.389 247.512 C 271.530 247.697,272.329 248.233,273.165 248.703 L 274.684 249.557 274.772 266.045 C 274.820 275.112,274.677 282.532,274.454 282.532 C 273.605 282.532,272.692 280.955,273.318 280.568 C 273.715 280.323,273.175 279.476,271.698 278.027 C 270.120 276.477,269.394 276.049,269.172 276.534 C 268.930 277.064,268.795 277.075,268.565 276.582 C 268.403 276.234,268.026 275.949,267.727 275.949 C 267.429 275.949,267.597 276.405,268.101 276.962 C 268.605 277.519,268.790 277.975,268.511 277.975 C 268.233 277.975,267.591 277.518,267.086 276.959 C 266.580 276.400,266.054 276.055,265.917 276.192 C 265.780 276.329,266.272 276.916,267.010 277.497 C 268.161 278.402,268.270 278.706,267.774 279.632 C 267.363 280.400,267.355 280.764,267.747 280.895 C 268.050 280.996,268.175 281.462,268.025 281.931 C 267.794 282.654,267.834 282.669,268.286 282.030 C 268.593 281.595,268.630 281.085,268.373 280.829 C 267.852 280.308,268.277 278.880,268.848 279.232 C 269.060 279.364,269.155 280.445,269.058 281.635 C 268.937 283.104,269.031 283.559,269.349 283.053 C 269.607 282.643,270.001 282.491,270.225 282.714 C 270.448 282.938,270.239 283.408,269.758 283.759 C 268.983 284.326,268.969 284.506,269.626 285.363 C 270.333 286.286,270.361 286.272,270.247 285.063 C 270.167 284.222,270.381 283.797,270.886 283.797 C 271.304 283.797,271.804 283.576,271.998 283.306 C 272.192 283.035,272.527 282.991,272.743 283.207 C 272.959 283.423,272.800 283.832,272.390 284.117 C 271.827 284.508,271.800 284.697,272.278 284.891 C 272.627 285.032,272.911 285.384,272.911 285.674 C 272.911 286.011,272.660 285.991,272.211 285.619 C 271.674 285.173,271.446 285.205,271.235 285.755 C 270.823 286.830,271.156 288.346,271.820 288.418 C 273.049 288.551,273.145 288.635,272.520 289.032 C 272.033 289.341,272.156 289.682,273.017 290.417 C 273.839 291.118,273.974 291.152,273.500 290.539 C 273.012 289.907,272.982 289.422,273.383 288.673 C 274.062 287.404,274.063 287.089,273.388 287.089 C 273.093 287.089,272.992 287.316,273.165 287.595 C 273.337 287.873,273.236 288.101,272.941 288.101 C 272.172 288.101,272.281 287.285,273.168 286.398 C 273.666 285.900,273.747 285.520,273.401 285.306 C 273.109 285.126,272.997 284.580,273.151 284.093 C 273.318 283.568,273.017 282.833,272.412 282.285 C 271.851 281.777,271.392 281.127,271.392 280.839 C 271.392 280.552,272.048 280.945,272.850 281.713 C 274.195 283.002,274.301 283.370,274.218 286.492 C 274.168 288.352,274.403 290.956,274.740 292.278 C 275.499 295.264,275.491 295.263,271.750 292.025 C 267.896 288.690,263.640 283.565,261.978 280.258 L 260.703 277.722 260.972 280.843 C 261.120 282.560,261.558 284.839,261.945 285.907 C 262.332 286.974,262.814 288.304,263.017 288.861 C 263.319 289.690,263.187 289.644,262.291 288.608 C 258.149 283.819,255.190 277.237,255.190 272.813 C 255.190 271.475,254.966 270.380,254.693 270.380 C 253.943 270.380,253.424 272.798,253.421 276.305 L 253.418 279.446 252.286 278.077 C 249.386 274.571,247.238 267.899,247.791 264.116 L 248.097 262.025 246.834 263.544 C 246.140 264.380,245.315 265.838,245.000 266.784 C 244.123 269.427,243.494 267.651,243.494 262.531 C 243.494 257.507,243.207 257.300,241.220 260.886 C 239.182 264.564,239.066 273.848,240.998 278.734 L 242.198 281.772 242.883 280.000 C 243.260 279.025,243.877 277.544,244.255 276.709 L 244.943 275.190 245.282 277.722 C 246.009 283.157,250.099 292.658,251.712 292.658 C 251.987 292.658,252.095 292.469,251.952 292.238 C 251.809 292.007,251.991 290.014,252.355 287.808 L 253.017 283.797 253.687 285.570 C 255.685 290.857,259.811 297.197,264.478 302.152 C 267.703 305.575,267.848 305.528,267.848 301.054 C 267.848 295.414,267.898 295.399,272.297 299.714 C 274.445 301.821,277.171 304.304,278.354 305.232 L 280.506 306.921 280.533 291.562 L 280.559 276.203 281.698 279.265 C 283.785 284.877,290.344 295.627,294.447 300.159 L 296.526 302.454 299.143 299.309 C 304.412 292.978,308.969 285.226,311.089 278.987 C 311.798 276.899,312.391 275.418,312.406 275.696 C 312.421 275.975,312.421 282.981,312.405 291.266 C 312.387 301.003,312.557 306.329,312.885 306.329 C 313.621 306.329,319.888 300.836,322.622 297.795 C 325.640 294.439,325.647 294.443,325.293 299.367 L 324.992 303.544 327.718 300.711 C 329.217 299.153,330.838 297.045,331.321 296.028 C 332.475 293.596,332.819 293.689,332.429 296.329 L 332.111 298.481 334.213 296.203 C 336.774 293.427,339.353 288.436,341.539 282.025 L 343.180 277.215 344.222 280.759 C 344.795 282.709,345.343 284.759,345.440 285.316 C 345.725 286.959,348.800 278.432,349.369 274.420 C 349.865 270.918,349.415 263.785,348.557 261.563 C 348.298 260.893,348.362 260.705,348.764 260.953 C 349.734 261.552,352.865 267.240,353.879 270.244 L 354.832 273.068 355.451 270.089 C 356.166 266.646,355.834 262.264,354.632 259.260 C 353.629 256.754,353.743 256.582,355.980 257.224 C 356.934 257.498,358.486 257.722,359.429 257.722 L 361.142 257.722 359.824 256.076 C 358.624 254.579,348.529 239.685,347.599 238.040 C 347.383 237.659,348.285 237.978,349.602 238.750 C 352.394 240.386,355.428 241.071,358.093 240.667 L 359.983 240.380 357.210 237.651 C 351.618 232.148,347.614 220.506,350.633 218.528 C 352.213 217.492,352.688 201.519,351.139 201.519 C 350.722 201.519,350.380 201.319,350.380 201.075 C 350.380 200.830,350.722 200.347,351.139 200.000 C 351.759 199.486,351.899 197.813,351.899 190.918 L 351.899 182.466 350.197 181.655 C 348.686 180.934,348.458 180.554,348.151 178.246 C 345.452 157.900,331.520 138.977,312.703 130.101 C 308.166 127.961,307.438 127.445,307.188 126.191 C 306.993 125.219,305.127 123.039,301.487 119.534 L 296.076 114.322 291.061 119.313 C 288.045 122.314,285.892 124.892,285.660 125.778 C 285.324 127.064,284.682 127.490,280.611 129.125 C 275.906 131.014,270.582 133.970,268.481 135.860 C 264.938 139.048,270.321 130.707,274.900 125.914 C 276.986 123.730,279.710 121.348,280.951 120.620 C 283.673 119.025,283.002 118.666,278.816 119.479 C 275.108 120.198,271.588 121.665,270.008 123.149 C 265.919 126.991,270.764 118.544,275.163 114.162 C 283.284 106.074,297.048 104.189,308.016 109.665 C 311.254 111.281,311.467 111.224,310.665 108.951 C 306.759 97.880,297.184 91.169,284.988 90.955 C 278.120 90.834,283.527 87.485,296.709 83.695 C 298.044 83.311,296.176 82.615,292.121 81.986 C 278.313 79.844,264.001 87.817,256.427 101.871 C 254.394 105.643,254.095 104.586,255.653 99.137 C 256.995 94.446,259.263 90.398,262.538 86.851 C 264.066 85.196,265.316 83.772,265.316 83.686 C 265.316 82.959,258.678 87.157,256.200 89.451 C 245.121 99.708,240.371 120.525,246.321 132.741 C 247.098 134.336,247.031 134.303,245.109 132.152 C 242.992 129.782,239.173 122.573,238.651 119.963 C 237.712 115.271,236.758 122.405,237.495 128.608 C 238.571 137.676,244.891 149.090,251.117 153.210 C 252.352 154.027,252.995 154.790,252.824 155.235 C 252.494 156.096,252.931 156.095,248.767 155.244 C 246.869 154.856,244.039 154.388,242.477 154.204 L 239.638 153.869 238.056 148.707 C 237.187 145.867,235.985 141.435,235.386 138.856 C 234.463 134.885,234.100 134.072,233.012 133.540 C 231.636 132.867,231.531 132.575,228.114 120.000 C 227.168 116.519,224.239 105.810,221.606 96.203 C 218.972 86.595,214.154 68.595,210.899 56.203 C 202.089 22.660,201.096 19.835,199.550 23.902 M108.651 85.451 C 109.279 85.875,110.387 88.862,110.366 90.076 C 110.357 90.627,109.912 90.367,108.974 89.263 C 107.918 88.021,107.121 87.605,105.574 87.491 C 102.897 87.293,102.394 85.741,104.906 85.432 C 107.841 85.070,108.090 85.071,108.651 85.451 M114.430 85.570 C 115.045 85.967,114.972 86.062,114.051 86.068 C 113.424 86.072,112.911 85.848,112.911 85.570 C 112.911 84.935,113.449 84.935,114.430 85.570 M101.798 88.772 C 102.136 90.213,102.618 91.791,102.870 92.278 C 103.556 93.609,102.918 93.358,100.622 91.392 C 99.484 90.418,98.308 89.613,98.010 89.603 C 97.146 89.577,95.010 87.607,95.407 87.203 C 95.934 86.665,99.901 85.703,100.592 85.945 C 100.917 86.059,101.460 87.332,101.798 88.772 M93.797 88.806 C 94.986 89.708,94.932 89.956,93.165 91.723 C 91.262 93.626,91.205 93.354,94.051 95.974 C 97.341 99.003,95.810 98.937,89.873 95.793 C 84.441 92.916,84.372 92.610,88.573 90.070 C 92.150 87.907,92.501 87.822,93.797 88.806 M85.443 95.691 C 87.226 96.778,87.739 99.023,86.329 99.564 C 85.911 99.724,85.570 100.072,85.570 100.337 C 85.570 100.602,85.854 100.648,86.203 100.439 C 86.640 100.176,86.624 100.320,86.147 100.907 C 85.542 101.654,85.633 101.819,86.907 102.290 C 96.487 105.828,96.835 106.340,88.861 105.170 C 83.558 104.392,83.118 104.591,83.220 107.722 C 83.259 108.906,83.152 109.874,82.982 109.874 C 82.811 109.874,82.758 110.500,82.862 111.266 C 83.025 112.459,82.984 112.513,82.574 111.646 C 82.162 110.772,82.092 110.754,82.061 111.519 C 82.041 112.006,81.854 112.423,81.646 112.444 C 81.437 112.466,80.354 112.580,79.241 112.697 C 75.107 113.135,75.037 108.585,79.056 100.819 C 82.181 94.779,82.944 94.167,85.443 95.691 M92.110 115.079 C 91.994 115.157,90.418 115.896,88.608 116.722 C 86.797 117.548,83.587 119.307,81.472 120.631 C 76.305 123.866,75.949 123.675,75.949 117.658 L 75.949 115.443 78.608 115.437 C 82.154 115.430,91.338 114.849,91.603 114.616 C 91.719 114.514,91.928 114.544,92.068 114.684 C 92.207 114.823,92.226 115.001,92.110 115.079 M197.468 115.101 C 197.468 115.191,195.816 116.371,193.797 117.723 C 184.864 123.705,183.374 125.418,184.794 128.072 C 185.468 129.331,184.584 129.525,183.883 128.272 C 183.469 127.532,183.368 127.568,183.048 128.575 C 182.756 129.496,182.397 129.678,181.216 129.505 C 180.408 129.386,179.747 129.463,179.747 129.676 C 179.747 129.889,178.892 130.056,177.848 130.047 C 176.804 130.039,175.291 130.287,174.487 130.600 C 172.548 131.352,172.561 131.409,173.667 127.069 C 175.313 120.607,181.140 117.033,192.911 115.265 C 194.655 115.003,197.468 114.901,197.468 115.101 M97.476 124.274 C 95.901 126.067,92.692 129.279,90.344 131.410 C 87.996 133.542,86.225 135.527,86.407 135.822 C 86.594 136.126,86.500 136.211,86.189 136.019 C 85.887 135.833,85.511 135.887,85.354 136.141 C 84.846 136.964,86.634 137.236,87.416 136.454 C 88.500 135.370,88.669 135.514,88.009 136.962 C 87.692 137.658,87.203 138.228,86.923 138.228 C 86.643 138.228,86.564 138.378,86.748 138.562 C 86.932 138.746,87.579 138.461,88.185 137.929 C 88.792 137.397,89.118 137.253,88.909 137.609 C 88.523 138.269,90.415 140.241,91.392 140.196 C 91.671 140.184,91.614 140.058,91.266 139.918 C 90.132 139.460,90.588 138.652,91.772 139.021 C 92.873 139.363,92.869 139.339,91.646 138.287 L 90.380 137.199 91.792 137.804 C 92.788 138.230,93.104 138.642,92.863 139.204 C 92.676 139.642,92.540 140.404,92.560 140.897 C 92.580 141.390,92.383 141.662,92.121 141.500 C 91.860 141.338,91.646 141.523,91.646 141.911 C 91.646 142.299,90.887 143.494,89.959 144.567 L 88.273 146.518 85.922 142.885 C 84.564 140.785,83.697 138.926,83.868 138.481 C 84.065 137.966,83.931 137.799,83.463 137.979 C 81.931 138.567,76.983 126.411,77.989 124.531 C 78.530 123.520,81.379 122.385,82.162 122.869 C 82.455 123.050,82.538 122.951,82.348 122.645 C 82.162 122.343,82.240 121.952,82.523 121.777 C 82.806 121.602,83.038 121.725,83.038 122.050 C 83.038 122.392,83.410 122.510,83.924 122.332 C 84.608 122.094,84.565 122.232,83.734 122.941 C 82.763 123.768,82.731 123.954,83.406 124.840 C 84.136 125.797,84.147 125.795,83.835 124.744 C 83.579 123.882,84.950 122.354,85.262 123.153 C 85.292 123.229,85.837 123.883,86.472 124.607 C 87.447 125.717,87.545 126.140,87.101 127.308 C 86.127 129.870,87.078 129.566,93.299 125.324 C 100.809 120.203,101.118 120.126,97.476 124.274 M299.831 124.430 C 303.491 128.235,304.421 130.886,306.072 142.213 C 307.763 153.819,308.521 180.253,307.163 180.253 C 306.624 180.253,306.404 178.277,306.135 171.013 C 305.057 141.872,302.896 129.648,298.017 125.095 C 295.310 122.569,295.287 122.824,295.232 155.063 L 295.190 180.253 290.311 180.253 L 285.433 180.253 285.712 165.949 C 285.999 151.302,286.336 147.237,288.182 136.203 C 289.502 128.313,289.296 128.820,292.903 124.567 C 296.538 120.281,295.852 120.294,299.831 124.430 M84.557 123.763 C 84.557 124.016,84.935 124.642,85.398 125.153 C 85.860 125.664,86.076 126.245,85.877 126.444 C 85.677 126.643,85.303 126.471,85.044 126.061 C 84.784 125.652,84.569 125.566,84.565 125.871 C 84.560 126.176,85.051 126.859,85.655 127.390 C 86.597 128.217,86.710 128.233,86.443 127.501 C 86.273 127.032,86.395 126.560,86.716 126.453 C 87.064 126.337,86.747 125.664,85.928 124.780 C 85.174 123.967,84.557 123.509,84.557 123.763 M285.079 134.810 C 283.538 138.339,278.398 165.833,277.175 177.089 L 276.831 180.253 268.542 180.329 C 263.983 180.371,259.973 180.428,259.630 180.456 C 258.742 180.528,259.087 176.939,260.504 171.353 C 262.451 163.676,264.698 158.683,270.817 148.438 L 272.430 145.736 270.943 146.795 C 263.488 152.104,256.822 164.604,254.655 177.342 L 254.073 180.759 251.340 180.759 C 248.130 180.759,248.093 180.637,249.342 174.177 C 252.487 157.919,265.135 141.831,280.597 134.421 C 285.694 131.978,286.293 132.030,285.079 134.810 M312.668 135.364 C 328.828 143.174,341.001 160.107,343.573 178.354 C 344.064 181.831,343.041 181.390,342.339 177.821 C 339.279 162.268,326.887 146.257,309.845 135.834 C 306.970 134.076,305.541 132.650,306.667 132.663 C 306.899 132.665,309.599 133.881,312.668 135.364 M206.979 133.670 C 219.864 134.385,229.501 136.022,230.106 137.598 C 230.532 138.707,230.208 138.836,228.566 138.212 C 224.568 136.692,203.493 135.057,202.780 136.211 C 202.641 136.436,201.965 136.557,201.278 136.482 C 200.591 136.407,200.133 136.515,200.262 136.722 C 200.390 136.930,200.019 137.225,199.437 137.377 C 198.855 137.529,198.500 137.849,198.648 138.089 C 198.796 138.328,198.420 138.561,197.813 138.606 C 197.206 138.651,196.280 139.211,195.755 139.850 L 194.802 141.013 195.189 139.770 C 195.553 138.603,195.525 138.580,194.718 139.387 C 194.246 139.859,194.023 140.510,194.223 140.834 C 194.441 141.186,194.367 141.286,194.037 141.083 C 193.735 140.896,193.349 140.968,193.179 141.243 C 192.663 142.077,195.310 142.430,199.922 142.142 C 205.095 141.819,204.613 142.260,197.215 144.621 C 194.709 145.421,192.357 146.417,191.988 146.835 C 191.619 147.253,191.462 147.309,191.639 146.960 C 191.862 146.520,191.602 146.386,190.790 146.523 C 189.545 146.734,189.514 146.885,190.311 148.861 C 190.750 149.948,190.829 149.984,190.870 149.114 C 190.915 148.164,190.960 148.156,191.591 148.987 C 192.191 149.778,193.331 149.873,202.210 149.873 C 212.207 149.873,228.600 150.682,231.896 151.338 C 234.592 151.874,234.761 153.677,232.076 153.263 C 223.518 151.943,177.376 151.553,167.909 152.719 L 165.438 153.024 165.807 150.563 C 166.010 149.209,166.367 147.744,166.601 147.307 C 167.020 146.524,174.627 144.222,179.210 143.490 C 182.929 142.896,179.893 142.198,173.544 142.187 C 170.422 142.181,168.101 141.971,168.101 141.693 C 168.101 138.436,169.250 136.753,171.826 136.233 C 179.181 134.750,188.178 133.681,196.962 133.247 C 197.658 133.212,202.166 133.402,206.979 133.670 M113.642 137.089 C 109.038 145.422,101.967 153.802,98.734 154.756 C 95.206 155.796,94.937 155.679,92.196 151.912 L 89.628 148.381 91.208 146.582 C 92.362 145.267,93.077 144.853,93.862 145.045 C 94.453 145.189,94.618 145.165,94.228 144.991 C 93.684 144.749,93.797 144.466,94.714 143.775 C 95.871 142.901,98.225 144.358,98.227 145.949 C 98.229 146.774,97.350 146.261,96.709 145.063 C 96.336 144.367,95.842 143.797,95.611 143.797 C 94.972 143.797,95.105 144.382,95.946 145.274 C 96.362 145.715,97.377 146.789,98.202 147.660 C 99.742 149.286,99.783 150.033,98.305 149.505 C 97.845 149.340,97.619 149.374,97.803 149.579 C 98.481 150.335,100.532 150.158,101.392 149.269 C 101.880 148.766,102.051 148.354,101.772 148.354 C 100.861 148.354,100.504 148.599,100.664 149.114 C 100.751 149.392,100.193 149.001,99.425 148.243 C 98.657 147.486,98.204 146.690,98.419 146.475 C 98.634 146.260,99.018 146.455,99.271 146.908 C 100.670 149.408,102.844 147.952,109.746 139.888 C 115.909 132.688,116.181 132.492,113.642 137.089 M230.886 141.549 C 230.886 142.229,230.789 142.785,230.670 142.785 C 226.800 142.785,219.462 140.824,223.038 140.746 C 225.859 140.684,229.505 140.284,229.783 140.006 C 230.275 139.514,230.886 140.369,230.886 141.549 M98.602 141.567 C 98.437 141.732,99.082 142.553,100.037 143.391 C 100.991 144.229,101.772 145.121,101.772 145.373 C 101.772 145.625,101.053 145.144,100.173 144.304 C 97.988 142.215,97.627 142.876,99.754 145.071 C 101.308 146.674,101.459 147.069,100.380 146.709 C 100.171 146.639,100.046 146.444,100.102 146.275 C 100.159 146.106,99.671 145.682,99.019 145.333 C 97.630 144.590,96.257 142.137,97.496 142.612 C 98.021 142.814,98.147 142.658,97.926 142.082 C 97.739 141.595,97.873 141.266,98.258 141.266 C 98.613 141.266,98.768 141.401,98.602 141.567 M231.519 146.659 C 232.006 146.794,232.405 147.134,232.405 147.416 C 232.405 147.994,230.155 147.599,227.360 146.528 L 225.570 145.843 228.101 146.128 C 229.494 146.286,231.032 146.524,231.519 146.659 M188.096 146.844 C 187.921 147.127,187.577 147.234,187.332 147.083 C 187.087 146.931,186.624 147.297,186.304 147.895 C 185.901 148.649,185.893 148.877,186.279 148.639 C 186.604 148.437,186.839 148.675,186.843 149.211 C 186.849 149.953,186.938 149.990,187.309 149.403 C 187.931 148.420,189.533 148.205,189.169 149.153 C 189.017 149.549,189.113 149.873,189.383 149.873 C 189.945 149.873,190.007 149.293,189.567 148.146 C 189.399 147.707,189.018 147.498,188.722 147.681 C 188.383 147.890,188.303 147.700,188.506 147.172 C 188.862 146.244,188.598 146.032,188.096 146.844 M114.177 156.383 C 112.785 157.166,109.253 159.118,106.329 160.720 C 99.947 164.217,95.200 167.201,95.194 167.722 C 95.192 167.930,97.810 168.101,101.013 168.101 C 104.215 168.101,106.835 168.227,106.835 168.380 C 106.835 168.533,106.488 169.330,106.063 170.152 L 105.290 171.646 96.949 171.646 C 92.361 171.646,88.608 171.821,88.608 172.034 C 88.608 172.550,91.012 176.155,92.324 177.608 L 93.365 178.760 91.176 177.988 C 88.712 177.118,81.248 176.931,80.757 177.726 C 80.341 178.399,83.326 179.640,91.646 182.254 C 100.105 184.912,106.772 187.447,105.989 187.708 C 105.665 187.816,101.679 187.330,97.130 186.629 C 86.009 184.912,83.898 185.027,86.863 187.187 L 88.156 188.129 86.736 188.256 C 85.955 188.326,82.512 188.010,79.085 187.554 C 75.657 187.098,72.726 186.852,72.571 187.007 C 71.826 187.752,77.873 190.576,85.241 192.925 C 89.738 194.359,93.987 195.721,94.684 195.954 C 95.633 196.270,95.126 196.385,92.658 196.414 C 86.101 196.490,72.320 194.831,69.033 193.570 C 66.004 192.407,73.710 200.351,77.624 202.426 C 78.685 202.988,79.340 203.579,79.081 203.740 C 78.063 204.369,69.644 204.499,69.258 203.891 C 68.973 203.443,68.874 203.456,68.869 203.942 C 68.863 204.412,68.607 204.457,67.947 204.104 C 67.445 203.835,66.753 203.789,66.409 204.002 C 65.892 204.321,63.344 204.299,59.873 203.946 C 59.137 203.871,59.000 202.025,59.731 202.025 C 60.001 202.025,60.104 201.720,59.961 201.346 C 59.049 198.970,62.486 189.570,66.580 183.241 C 74.439 171.092,86.523 163.373,107.342 157.202 C 116.072 154.615,117.659 154.425,114.177 156.383 M202.025 162.019 C 202.025 162.301,201.562 162.532,200.995 162.532 C 200.125 162.532,200.048 162.688,200.500 163.533 C 200.937 164.350,200.894 164.480,200.265 164.238 C 199.841 164.075,199.494 164.195,199.494 164.503 C 199.494 164.811,199.722 165.063,200.000 165.063 C 200.843 165.063,200.574 165.855,199.245 167.289 C 197.359 169.324,196.920 172.910,198.200 175.823 C 199.257 178.227,192.978 175.647,191.374 173.018 C 190.284 171.229,190.012 172.126,190.918 174.524 C 193.223 180.624,201.565 182.250,206.516 177.564 C 210.538 173.758,210.758 167.708,207.003 164.201 C 205.548 162.843,202.025 161.298,202.025 162.019 M269.873 165.254 C 269.873 165.638,270.215 166.236,270.633 166.582 C 272.444 168.085,270.503 170.027,268.101 169.114 C 266.341 168.445,266.329 168.448,266.329 169.620 C 266.329 172.524,270.886 173.717,273.188 171.415 C 275.600 169.003,274.272 164.557,271.139 164.557 C 270.402 164.557,269.873 164.848,269.873 165.254 M323.113 168.101 C 322.896 170.886,322.848 170.940,321.134 170.337 C 318.520 169.417,318.974 165.406,321.663 165.665 C 323.262 165.820,323.288 165.863,323.113 168.101 M194.936 198.662 C 194.937 213.186,195.017 214.761,195.740 214.483 C 197.771 213.704,200.401 213.636,202.359 214.312 L 204.465 215.040 204.637 205.621 C 204.732 200.441,204.736 193.127,204.646 189.367 L 204.482 182.532 199.709 182.532 L 194.936 182.532 194.936 198.662 M345.759 185.633 L 347.342 185.949 347.342 191.203 L 347.342 196.456 345.190 196.416 C 344.006 196.394,343.323 196.261,343.671 196.120 C 344.107 195.944,344.304 194.536,344.304 191.590 L 344.304 187.315 330.380 187.358 C 321.452 187.385,316.456 187.582,316.456 187.907 C 316.456 188.186,316.684 188.273,316.962 188.101 C 317.241 187.929,317.468 188.054,317.468 188.379 C 317.468 188.703,317.127 188.838,316.709 188.678 C 315.714 188.296,315.745 188.808,316.787 189.960 C 317.248 190.469,317.394 190.886,317.111 190.886 C 316.634 190.886,315.518 189.625,314.436 187.863 C 314.185 187.453,313.820 187.277,313.626 187.471 C 313.432 187.665,313.566 188.176,313.924 188.607 C 314.466 189.261,314.446 189.341,313.800 189.093 C 312.193 188.477,310.674 191.637,311.723 193.413 C 312.218 194.251,312.802 194.937,313.021 194.937 C 313.731 194.937,313.441 194.102,312.405 193.165 C 311.848 192.661,311.392 192.016,311.392 191.732 C 311.392 191.448,311.962 191.751,312.658 192.405 C 313.354 193.059,313.924 193.413,313.924 193.191 C 313.924 192.969,314.266 193.071,314.684 193.418 C 315.101 193.764,315.443 194.292,315.443 194.589 C 315.443 194.887,315.109 194.688,314.700 194.147 C 314.049 193.288,313.954 193.272,313.940 194.021 C 313.915 195.350,312.835 195.703,312.055 194.637 C 311.374 193.706,310.415 194.242,310.388 195.570 C 310.383 195.778,308.899 195.949,307.089 195.949 L 303.797 195.949 303.797 211.519 L 303.796 227.089 300.295 230.886 L 296.793 234.684 292.953 230.899 L 289.114 227.114 289.114 211.765 L 289.114 196.416 267.722 196.479 L 246.329 196.542 246.183 191.598 C 246.103 188.879,246.153 186.353,246.294 185.985 C 246.565 185.278,342.287 184.938,345.759 185.633 M310.662 187.801 C 310.506 188.054,310.572 188.786,310.810 189.428 L 311.241 190.595 311.823 189.508 C 312.776 187.728,311.692 186.135,310.662 187.801 M249.101 190.160 C 248.417 191.958,248.466 192.264,249.620 193.418 C 251.290 195.087,253.165 194.050,253.165 191.458 C 253.165 188.730,250.026 187.727,249.101 190.160 M315.696 190.886 C 316.200 191.443,316.358 191.899,316.046 191.899 C 315.734 191.899,315.235 191.443,314.937 190.886 C 314.639 190.329,314.481 189.873,314.587 189.873 C 314.693 189.873,315.192 190.329,315.696 190.886 M254.956 206.582 C 261.983 208.342,273.413 210.325,278.987 210.751 C 279.962 210.825,280.703 211.057,280.633 211.266 C 280.563 211.475,280.506 219.073,280.506 228.151 L 280.506 244.656 278.861 243.615 L 277.215 242.574 276.962 232.806 L 276.709 223.038 268.682 221.687 C 259.455 220.135,255.459 219.189,250.127 217.297 L 246.329 215.949 246.186 210.253 C 246.107 207.120,246.230 204.557,246.458 204.557 C 246.687 204.557,250.511 205.468,254.956 206.582 M347.342 209.845 C 347.342 216.131,347.482 215.960,340.465 218.212 C 335.798 219.710,327.589 221.369,327.602 220.812 C 327.606 220.644,329.912 219.755,332.727 218.838 C 335.542 217.920,339.298 216.510,341.075 215.705 L 344.304 214.241 344.304 210.665 C 344.304 208.698,344.193 207.089,344.057 207.089 C 343.921 207.089,341.700 207.637,339.120 208.306 C 334.722 209.449,327.221 210.692,320.253 211.435 C 318.582 211.613,317.144 211.948,317.056 212.180 C 316.968 212.412,316.520 212.457,316.060 212.280 C 315.326 211.999,315.313 212.055,315.952 212.740 C 316.354 213.169,317.030 213.498,317.455 213.469 C 317.880 213.441,318.228 213.759,318.228 214.177 C 318.228 214.602,317.822 214.903,317.307 214.861 C 316.725 214.812,316.483 215.036,316.648 215.468 C 316.829 215.939,316.644 216.051,316.050 215.829 C 315.295 215.546,315.276 215.612,315.895 216.374 C 316.561 217.191,316.662 217.189,317.668 216.342 C 318.730 215.447,318.731 215.447,317.801 216.548 C 317.287 217.156,316.556 217.534,316.175 217.388 C 315.461 217.114,315.508 218.624,316.252 219.827 C 316.475 220.187,316.389 220.272,316.028 220.048 C 315.592 219.779,315.443 222.583,315.443 231.021 L 315.443 242.355 314.177 243.544 L 312.911 244.733 312.911 227.936 C 312.911 218.698,313.041 211.139,313.198 211.139 C 316.135 211.139,336.258 207.245,341.772 205.610 C 347.573 203.890,347.342 203.715,347.342 209.845 M133.671 205.493 L 137.975 205.823 124.051 207.720 C 116.392 208.764,106.481 210.165,102.025 210.834 C 97.570 211.502,92.671 212.191,91.139 212.364 C 89.608 212.538,87.329 212.795,86.076 212.936 C 84.823 213.076,83.000 213.334,82.025 213.508 C 81.051 213.682,79.570 213.882,78.734 213.953 C 75.444 214.232,71.655 214.968,70.806 215.493 C 70.416 215.733,70.358 215.617,70.629 215.142 C 70.957 214.566,70.904 214.551,70.353 215.063 C 69.551 215.808,68.668 215.912,69.101 215.211 C 69.266 214.945,68.778 215.049,68.018 215.443 C 67.014 215.964,66.455 216.011,65.976 215.613 C 65.516 215.231,65.316 215.229,65.316 215.604 C 65.316 216.350,66.311 216.892,67.832 216.976 C 71.980 217.203,74.875 217.844,75.165 218.598 C 75.525 219.538,74.464 220.392,73.688 219.787 C 72.838 219.124,71.184 219.344,70.550 220.205 C 70.226 220.645,69.562 221.007,69.074 221.009 C 68.587 221.011,68.095 221.354,67.980 221.772 C 67.797 222.436,67.836 222.438,68.288 221.787 C 68.573 221.377,68.970 221.206,69.171 221.407 C 70.094 222.330,66.520 223.046,65.431 222.156 C 64.936 221.751,64.870 221.851,65.147 222.587 C 65.455 223.407,65.392 223.452,64.711 222.898 C 64.063 222.372,63.867 222.380,63.652 222.941 C 63.506 223.319,63.651 223.636,63.972 223.644 C 64.294 223.653,66.608 223.911,69.114 224.217 C 71.620 224.523,80.962 225.125,89.873 225.555 C 131.658 227.569,155.474 230.051,157.067 232.557 C 157.944 233.937,157.496 234.329,155.545 233.891 C 144.188 231.339,123.668 229.521,90.127 228.094 C 80.241 227.673,68.734 227.091,64.557 226.799 C 60.380 226.508,53.123 226.112,48.431 225.919 L 39.900 225.570 43.621 222.805 C 45.667 221.284,48.495 219.120,49.905 217.995 C 57.770 211.718,58.995 211.082,63.728 210.822 C 66.133 210.690,72.886 209.926,78.734 209.125 C 102.847 205.820,121.682 204.575,133.671 205.493 M249.396 209.733 C 248.347 211.231,248.400 212.820,249.534 213.846 C 251.983 216.062,254.427 212.179,252.132 209.716 C 250.835 208.323,250.381 208.326,249.396 209.733 M172.415 214.673 L 170.435 216.701 171.719 218.097 C 173.969 220.546,175.018 222.398,177.468 228.243 C 178.785 231.385,180.258 234.443,180.741 235.039 L 181.619 236.123 181.966 234.644 C 182.157 233.830,183.023 231.741,183.890 230.000 L 185.468 226.835 188.372 226.835 C 190.907 226.835,191.381 226.996,192.101 228.095 C 194.888 232.348,203.426 232.519,206.660 228.386 C 209.644 224.573,214.374 226.773,216.587 233.004 C 217.867 236.609,218.407 236.007,222.297 226.630 C 223.210 224.428,225.033 221.206,226.347 219.470 L 228.736 216.313 226.589 214.518 L 224.441 212.723 222.054 215.488 C 219.182 218.815,215.676 220.917,211.534 221.796 C 208.157 222.512,208.313 222.589,206.500 219.314 C 203.825 214.481,195.470 215.054,191.705 220.329 C 188.944 224.197,180.911 221.177,175.656 214.298 L 174.395 212.646 172.415 214.673 M147.848 219.241 C 147.430 219.510,144.696 219.731,141.772 219.731 C 138.155 219.731,136.698 219.574,137.215 219.241 C 137.633 218.971,140.367 218.750,143.291 218.750 C 146.908 218.750,148.365 218.907,147.848 219.241 M72.505 220.184 C 72.907 219.609,72.956 219.614,72.796 220.209 C 72.598 220.945,70.886 221.474,70.886 220.799 C 70.886 220.092,71.624 219.682,71.823 220.279 C 71.965 220.705,72.159 220.678,72.505 220.184 M201.489 221.487 C 202.537 222.603,202.554 222.696,201.668 222.464 C 200.512 222.162,199.726 223.011,199.379 224.937 C 199.206 225.897,199.342 226.329,199.817 226.329 C 200.196 226.329,200.506 226.557,200.506 226.835 C 200.506 227.573,199.157 227.455,197.443 226.569 C 196.224 225.939,195.949 225.474,195.949 224.038 C 195.949 220.613,199.243 219.096,201.489 221.487 M271.646 230.047 C 271.646 232.917,271.288 233.291,269.598 232.184 C 267.426 230.761,268.220 227.104,270.627 227.449 C 271.487 227.572,271.646 227.976,271.646 230.047 M324.682 228.608 C 324.611 229.165,324.520 230.247,324.478 231.013 C 324.391 232.615,323.349 232.843,321.939 231.567 C 320.058 229.865,321.282 227.171,323.797 227.474 C 324.485 227.556,324.769 227.921,324.682 228.608 M60.399 232.765 C 61.807 233.798,64.343 235.536,66.036 236.627 C 67.729 237.718,69.281 238.866,69.486 239.178 C 69.691 239.491,69.861 251.687,69.866 266.281 L 69.873 292.815 68.797 291.851 C 67.410 290.607,62.033 283.682,59.322 279.648 L 57.215 276.511 57.215 253.699 C 57.215 241.152,57.356 230.886,57.527 230.886 C 57.699 230.886,58.991 231.732,60.399 232.765 M206.132 231.578 C 204.239 233.859,197.387 234.366,194.162 232.463 L 192.532 231.501 192.532 232.713 C 192.532 233.379,192.744 233.924,193.005 233.924 C 193.265 233.924,193.337 233.696,193.165 233.418 C 192.992 233.139,193.093 232.911,193.388 232.911 C 194.174 232.911,194.042 233.734,193.104 234.671 C 192.653 235.122,192.438 235.645,192.625 235.832 C 192.813 236.020,193.143 235.887,193.359 235.538 C 193.582 235.176,194.171 235.040,194.724 235.220 C 195.500 235.474,195.546 235.432,194.951 235.012 C 194.112 234.419,194.559 233.631,195.430 234.169 C 195.738 234.360,195.858 234.934,195.696 235.445 C 195.490 236.092,195.715 236.474,196.435 236.702 C 197.490 237.037,197.878 237.975,196.962 237.975 C 196.684 237.975,196.456 237.701,196.456 237.367 C 196.456 236.906,196.304 236.911,195.827 237.388 C 195.326 237.889,195.352 238.122,195.954 238.535 C 196.535 238.934,196.447 238.980,195.570 238.733 C 194.275 238.369,194.111 238.740,195.121 239.750 C 195.654 240.283,195.950 240.304,196.417 239.841 C 196.885 239.377,196.946 239.441,196.685 240.127 C 196.271 241.214,195.763 241.249,194.932 240.247 C 194.448 239.664,194.130 239.619,193.604 240.056 C 193.096 240.478,192.911 240.479,192.911 240.062 C 192.911 239.749,193.167 239.494,193.480 239.494 C 193.880 239.494,193.867 239.276,193.436 238.756 C 193.100 238.351,192.961 237.797,193.129 237.526 C 193.297 237.254,193.241 236.912,193.004 236.766 C 192.767 236.620,192.578 237.629,192.584 239.009 C 192.591 240.652,192.809 241.519,193.217 241.519 C 193.559 241.519,193.955 241.804,194.096 242.152 C 194.290 242.630,194.498 242.599,194.946 242.025 C 195.445 241.386,195.488 241.420,195.220 242.238 C 195.038 242.796,195.179 243.386,195.552 243.623 C 196.059 243.944,196.062 244.037,195.570 244.043 C 195.222 244.047,194.500 243.614,193.966 243.080 C 192.801 241.915,192.468 242.124,192.791 243.817 C 193.091 245.384,193.881 245.923,194.526 245.002 C 194.926 244.429,194.974 244.440,194.794 245.063 C 194.673 245.481,194.200 245.791,193.743 245.752 C 193.110 245.699,192.913 246.122,192.919 247.525 C 192.925 248.901,193.051 249.175,193.418 248.608 C 193.713 248.151,193.912 248.089,193.916 248.451 C 193.921 248.783,193.668 249.212,193.355 249.406 C 192.789 249.756,192.807 252.685,193.704 306.076 C 194.218 336.664,196.004 354.204,199.246 360.490 C 201.080 364.046,204.101 345.098,205.299 322.532 C 205.454 319.608,205.824 301.380,206.122 282.025 C 206.419 262.671,206.816 243.247,207.002 238.860 C 207.338 230.968,207.250 230.231,206.132 231.578 M110.126 234.341 L 112.150 234.700 108.994 235.656 C 107.259 236.181,105.459 237.031,104.995 237.544 C 104.309 238.302,104.008 238.360,103.394 237.850 C 102.751 237.316,102.693 237.394,103.003 238.371 C 103.264 239.193,103.177 239.480,102.696 239.380 C 102.262 239.290,102.061 239.686,102.126 240.506 L 102.226 241.772 101.630 240.545 C 101.165 239.590,101.171 239.272,101.656 239.111 C 102.331 238.886,102.522 237.975,101.894 237.975 C 100.774 237.975,100.201 240.098,100.994 241.308 C 101.435 241.981,101.581 242.532,101.320 242.532 C 101.058 242.532,100.711 242.247,100.549 241.899 C 100.343 241.459,100.170 241.437,99.982 241.827 C 99.285 243.266,98.271 244.263,97.890 243.882 C 97.659 243.651,97.909 243.141,98.445 242.749 C 98.981 242.357,99.271 241.887,99.090 241.706 C 98.908 241.524,98.323 241.915,97.789 242.574 C 96.851 243.733,96.849 243.800,97.740 244.573 C 98.382 245.130,98.519 245.595,98.192 246.104 C 97.716 246.845,97.169 246.421,96.522 244.810 C 96.410 244.532,95.983 244.741,95.573 245.274 C 94.797 246.284,96.532 249.114,97.927 249.114 C 98.226 249.114,97.846 248.535,97.083 247.828 C 95.698 246.543,95.295 245.570,96.148 245.570 C 96.397 245.570,96.741 245.935,96.912 246.382 C 97.084 246.828,97.547 247.070,97.942 246.918 C 98.337 246.766,98.962 247.028,99.330 247.498 C 99.945 248.284,99.919 248.292,99.019 247.595 C 98.122 246.900,98.068 246.915,98.386 247.763 C 98.582 248.284,98.426 249.129,98.031 249.694 C 97.644 250.246,97.454 251.196,97.609 251.805 C 97.837 252.696,97.612 252.582,96.458 251.221 C 95.290 249.844,95.157 249.445,95.740 249.076 C 96.197 248.787,96.238 248.620,95.853 248.615 C 94.555 248.599,94.700 249.700,96.248 251.626 C 97.138 252.734,98.059 253.522,98.295 253.376 C 98.530 253.231,98.574 253.500,98.391 253.975 C 98.112 254.704,97.796 254.551,96.372 252.996 C 95.443 251.983,94.685 251.322,94.686 251.526 C 94.687 251.731,95.420 252.680,96.315 253.634 C 97.372 254.763,97.718 255.444,97.304 255.582 C 96.810 255.747,96.802 255.957,97.266 256.517 C 97.596 256.915,97.725 257.380,97.553 257.552 C 97.381 257.724,96.787 257.320,96.232 256.654 C 95.677 255.988,95.216 255.728,95.207 256.076 C 95.197 256.424,95.393 256.709,95.642 256.709 C 95.891 256.709,96.235 257.076,96.407 257.525 C 96.622 258.085,96.500 258.256,96.019 258.071 C 95.613 257.916,95.042 258.318,94.662 259.028 C 94.301 259.702,93.866 260.253,93.696 260.253 C 93.525 260.253,93.338 260.823,93.281 261.519 C 93.223 262.215,93.426 262.785,93.731 262.785 C 94.036 262.785,94.159 263.115,94.004 263.519 C 93.816 264.009,93.966 264.159,94.456 263.971 C 94.860 263.816,95.190 263.941,95.190 264.250 C 95.190 264.558,94.924 264.810,94.599 264.810 C 94.274 264.810,94.141 264.942,94.302 265.104 C 94.464 265.265,95.173 265.019,95.879 264.557 C 96.584 264.094,97.288 263.734,97.442 263.757 C 98.533 263.916,98.820 263.673,98.587 262.785 C 98.227 261.405,98.962 261.500,99.565 262.911 C 100.963 266.178,98.345 272.495,95.971 271.584 C 94.940 271.188,94.981 270.393,96.076 269.579 C 96.908 268.959,96.891 268.848,95.797 267.751 C 94.925 266.876,94.716 266.805,94.965 267.468 C 95.148 267.956,95.065 268.354,94.780 268.354 C 94.495 268.354,94.166 268.070,94.049 267.722 C 93.883 267.228,93.650 267.242,92.994 267.784 C 91.332 269.155,92.434 271.489,94.827 271.665 C 95.416 271.709,95.991 272.024,96.105 272.365 C 96.245 272.786,96.685 272.635,97.469 271.898 C 98.371 271.051,98.718 270.957,99.037 271.472 C 99.732 272.598,99.633 273.848,98.870 273.556 C 98.485 273.408,98.290 272.975,98.436 272.593 C 98.823 271.584,98.556 271.729,97.177 273.276 C 96.502 274.033,96.342 274.352,96.821 273.985 C 97.551 273.426,97.819 273.443,98.462 274.086 C 99.039 274.663,99.074 274.912,98.603 275.080 C 98.257 275.203,98.144 275.486,98.351 275.708 C 98.558 275.930,99.195 275.689,99.766 275.173 C 100.487 274.520,100.716 274.460,100.518 274.976 C 100.123 276.007,98.228 277.170,98.228 276.382 C 98.228 276.022,97.872 276.114,97.313 276.620 C 96.466 277.386,96.336 277.385,95.545 276.594 C 94.427 275.476,93.131 276.461,94.133 277.668 C 94.624 278.260,94.619 278.660,94.105 279.588 C 93.748 280.232,93.512 280.954,93.581 281.193 C 93.650 281.431,93.414 281.986,93.056 282.427 C 92.505 283.105,92.535 283.179,93.249 282.912 C 94.252 282.536,94.791 283.583,94.121 284.603 C 93.730 285.199,93.566 285.170,93.130 284.430 C 92.843 283.943,92.382 283.544,92.106 283.544 C 90.761 283.544,94.320 286.318,95.758 286.391 C 96.793 286.443,97.108 286.323,96.663 286.048 C 96.287 285.815,96.148 285.455,96.356 285.248 C 96.563 285.040,97.126 285.264,97.607 285.745 C 98.372 286.510,98.387 286.679,97.722 287.099 C 96.725 287.729,97.525 287.736,98.699 287.108 C 99.495 286.681,99.587 286.812,99.432 288.146 C 99.334 288.985,99.422 289.568,99.627 289.441 C 99.832 289.315,100.028 289.816,100.063 290.555 C 100.097 291.294,100.021 291.614,99.894 291.266 C 99.767 290.918,99.449 290.633,99.188 290.633 C 98.683 290.633,98.920 292.719,99.546 293.789 C 99.752 294.142,99.440 294.009,98.853 293.495 C 98.266 292.980,97.569 292.693,97.304 292.856 C 96.668 293.250,95.519 291.836,95.932 291.167 C 96.125 290.855,95.938 290.766,95.469 290.946 C 95.037 291.112,94.684 291.014,94.684 290.729 C 94.684 289.633,96.010 289.803,97.374 291.075 C 98.266 291.907,98.679 292.091,98.479 291.569 C 98.303 291.111,98.410 290.580,98.717 290.391 C 99.531 289.887,96.981 288.029,95.994 288.407 C 95.552 288.577,95.190 288.483,95.190 288.198 C 95.190 287.913,95.475 287.564,95.823 287.424 C 96.171 287.283,96.211 287.151,95.911 287.129 C 95.611 287.107,94.814 287.708,94.139 288.466 C 93.464 289.223,93.316 289.532,93.810 289.153 C 94.928 288.294,95.530 288.762,94.508 289.696 C 93.853 290.295,93.890 290.520,94.812 291.514 L 95.863 292.648 94.689 293.666 C 93.365 294.815,92.658 294.963,92.658 294.093 C 92.658 293.768,92.518 293.642,92.347 293.813 C 92.176 293.984,92.546 294.762,93.170 295.543 C 94.028 296.618,94.231 296.716,94.008 295.949 C 93.617 294.603,96.060 292.632,96.757 293.732 C 97.379 294.713,97.323 295.040,96.481 295.363 C 95.959 295.563,95.841 295.401,96.072 294.801 C 96.357 294.056,96.303 294.044,95.603 294.697 C 95.167 295.105,94.905 295.683,95.020 295.983 C 95.257 296.601,92.809 297.874,92.157 297.472 C 91.923 297.327,91.656 297.409,91.562 297.654 C 91.405 298.067,86.443 300.759,85.840 300.759 C 85.691 300.759,85.570 287.098,85.570 270.401 L 85.570 240.043 87.722 238.791 C 92.869 235.797,104.882 233.411,110.126 234.341 M193.418 236.402 C 193.418 236.963,194.975 237.598,195.374 237.200 C 195.535 237.039,195.332 236.695,194.922 236.436 C 193.975 235.837,193.418 235.824,193.418 236.402 M331.387 239.503 C 331.119 239.936,330.602 246.168,330.579 249.251 C 330.575 249.745,330.335 250.002,330.045 249.823 C 329.691 249.604,329.675 249.808,329.996 250.445 C 330.811 252.066,329.843 265.305,328.679 268.451 C 328.441 269.094,328.347 269.905,328.469 270.253 C 328.592 270.601,328.421 270.886,328.089 270.886 C 327.758 270.886,327.618 271.228,327.778 271.646 C 327.938 272.063,327.876 272.405,327.639 272.405 C 327.402 272.405,326.948 273.440,326.630 274.706 C 326.256 276.190,325.848 276.881,325.479 276.653 C 325.130 276.437,325.047 276.526,325.265 276.880 C 325.463 277.199,324.799 279.523,323.790 282.044 C 321.374 288.083,321.649 288.363,325.529 283.806 C 327.313 281.710,328.865 280.089,328.978 280.202 C 329.728 280.952,324.146 288.875,320.038 292.892 L 317.468 295.405 317.477 272.639 L 317.487 249.873 320.136 248.152 C 324.419 245.369,330.035 240.830,330.381 239.873 C 330.557 239.386,330.927 238.987,331.203 238.987 C 331.479 238.987,331.562 239.219,331.387 239.503 M149.125 246.076 C 153.102 256.613,158.095 265.930,161.453 269.082 C 163.828 271.310,163.411 271.504,159.367 270.054 C 152.873 267.726,153.315 268.237,151.243 260.666 C 150.229 256.958,148.823 251.235,148.120 247.949 C 147.417 244.663,146.694 241.359,146.514 240.607 C 145.883 237.972,146.757 239.803,149.125 246.076 M100.970 243.870 C 101.394 244.975,100.831 245.488,100.233 244.542 C 99.635 243.596,99.622 243.038,100.199 243.038 C 100.448 243.038,100.795 243.412,100.970 243.870 M92.974 244.284 C 93.129 244.687,92.789 245.114,92.152 245.317 C 91.186 245.623,91.147 245.755,91.801 246.502 C 92.206 246.964,92.488 248.073,92.427 248.966 C 92.367 249.860,92.517 250.467,92.761 250.316 C 93.006 250.165,93.067 249.605,92.898 249.071 C 92.726 248.529,92.828 248.101,93.130 248.101 C 93.428 248.101,93.671 248.367,93.671 248.692 C 93.671 249.017,93.824 249.130,94.010 248.943 C 94.197 248.756,93.817 248.036,93.165 247.342 C 92.513 246.648,92.144 245.915,92.346 245.713 C 92.548 245.511,92.892 245.635,93.110 245.988 C 93.420 246.490,93.652 246.456,94.167 245.835 C 94.735 245.151,94.694 245.090,93.869 245.400 C 93.049 245.708,93.004 245.645,93.557 244.964 C 94.087 244.311,94.069 244.118,93.456 243.882 C 92.970 243.696,92.802 243.835,92.974 244.284 M267.215 245.091 C 268.120 245.940,268.861 246.859,268.861 247.135 C 268.861 247.410,268.244 247.064,267.489 246.364 C 266.518 245.464,266.009 245.269,265.745 245.696 C 265.539 246.028,265.195 246.123,264.979 245.907 C 264.763 245.691,264.921 245.299,265.331 245.036 C 265.985 244.616,265.983 244.496,265.316 244.058 C 264.899 243.784,264.785 243.557,265.063 243.554 C 265.342 243.551,266.310 244.243,267.215 245.091 M99.520 244.514 C 99.363 244.768,99.520 245.079,99.870 245.204 C 100.220 245.329,100.323 245.626,100.099 245.865 C 99.875 246.104,99.480 245.965,99.221 245.555 C 98.597 244.569,98.614 244.051,99.270 244.051 C 99.565 244.051,99.678 244.259,99.520 244.514 M107.848 250.379 C 108.799 251.525,107.556 254.283,106.182 254.076 C 104.634 253.844,103.992 252.480,104.700 250.925 C 105.363 249.471,106.876 249.208,107.848 250.379 M61.266 251.139 C 59.666 252.739,59.985 254.498,62.074 255.596 C 64.672 256.963,66.634 252.626,64.191 250.915 C 62.743 249.900,62.485 249.920,61.266 251.139 M271.841 252.188 C 271.370 252.479,271.044 252.348,270.848 251.791 C 270.588 251.050,270.518 251.060,270.203 251.882 C 270.009 252.388,269.709 252.662,269.536 252.490 C 268.791 251.744,270.476 250.649,271.514 251.204 C 272.338 251.645,272.403 251.841,271.841 252.188 M251.013 251.674 C 249.927 252.321,249.857 253.599,250.886 253.994 C 251.304 254.154,251.646 254.855,251.646 255.551 C 251.646 256.469,251.436 256.737,250.886 256.526 C 249.624 256.042,250.035 257.195,251.335 257.788 C 252.968 258.532,255.257 257.421,255.909 255.567 C 256.850 252.892,253.474 250.207,251.013 251.674 M342.015 253.347 C 342.651 256.284,342.594 256.450,340.886 256.614 C 338.970 256.799,337.793 254.923,338.728 253.176 C 339.681 251.395,341.615 251.495,342.015 253.347 M272.110 253.852 C 271.784 254.700,270.886 255.013,270.886 254.278 C 270.886 253.786,272.016 252.606,272.257 252.847 C 272.351 252.942,272.285 253.394,272.110 253.852 M93.685 253.907 C 93.246 254.436,93.222 254.684,93.609 254.684 C 93.921 254.684,94.177 254.909,94.177 255.184 C 94.177 255.459,93.677 255.630,93.067 255.564 C 92.135 255.462,91.940 255.718,91.857 257.155 C 91.786 258.381,91.896 258.668,92.246 258.167 C 92.637 257.609,92.788 257.600,92.999 258.122 C 93.310 258.892,94.689 257.991,94.676 257.027 C 94.672 256.713,94.452 256.797,94.188 257.215 C 93.767 257.880,93.599 257.866,92.833 257.101 C 92.352 256.620,92.129 256.057,92.336 255.850 C 92.544 255.642,92.892 255.761,93.110 256.115 C 93.676 257.031,94.807 255.594,94.385 254.495 C 94.044 253.607,94.936 253.329,95.363 254.190 C 95.504 254.475,95.566 254.433,95.500 254.095 C 95.314 253.144,94.397 253.049,93.685 253.907 M99.440 255.487 C 99.610 255.928,99.560 256.626,99.330 257.038 C 98.752 258.071,97.567 256.687,98.020 255.507 C 98.422 254.461,99.043 254.452,99.440 255.487 M100.066 258.481 C 99.963 258.759,100.248 259.419,100.699 259.947 C 101.482 260.864,101.466 260.879,100.336 260.286 C 99.686 259.944,99.021 259.797,98.860 259.959 C 98.698 260.121,98.795 260.253,99.075 260.253 C 99.355 260.253,99.861 260.880,100.199 261.646 L 100.813 263.038 99.552 261.604 C 98.802 260.750,98.417 259.844,98.601 259.364 C 98.830 258.766,98.692 258.642,98.063 258.884 C 97.254 259.194,96.900 258.712,97.497 258.114 C 97.986 257.626,100.261 257.950,100.066 258.481 M323.694 259.101 C 321.630 260.129,321.275 261.067,322.542 262.152 C 323.685 263.130,323.839 264.101,322.911 264.475 C 322.563 264.615,323.133 264.748,324.177 264.770 C 325.222 264.792,326.076 264.582,326.076 264.304 C 326.076 264.025,326.456 263.797,326.920 263.797 C 327.384 263.797,327.626 263.660,327.458 263.492 C 327.291 263.324,327.361 262.641,327.615 261.973 C 327.925 261.156,327.897 260.759,327.528 260.759 C 327.227 260.759,327.116 260.406,327.282 259.974 C 327.448 259.542,327.379 259.314,327.129 259.469 C 326.478 259.871,325.015 259.223,325.349 258.681 C 325.701 258.111,325.659 258.122,323.694 259.101 M264.304 263.226 C 264.304 263.443,264.873 264.156,265.570 264.810 C 266.266 265.464,266.835 265.856,266.835 265.681 C 266.835 265.506,266.266 264.793,265.570 264.097 C 264.873 263.400,264.304 263.009,264.304 263.226 M98.458 264.450 C 97.328 265.761,97.356 266.079,98.607 266.154 C 99.587 266.213,99.729 266.111,99.192 265.736 C 98.645 265.354,98.627 265.180,99.114 264.983 C 99.795 264.706,99.995 263.785,99.367 263.817 C 99.158 263.827,98.749 264.112,98.458 264.450 M269.241 267.451 C 268.144 268.824,268.100 269.573,269.140 269.174 C 269.572 269.008,269.797 269.082,269.638 269.338 C 269.480 269.594,269.572 269.940,269.843 270.108 C 270.114 270.275,270.204 270.804,270.042 271.282 C 269.855 271.837,270.059 271.737,270.605 271.004 C 271.076 270.373,271.667 269.984,271.919 270.139 C 272.464 270.476,273.122 268.171,272.748 267.237 C 272.603 266.877,272.467 267.209,272.445 267.975 C 272.401 269.523,272.069 269.656,270.751 268.656 C 270.218 268.252,269.984 267.643,270.172 267.153 C 270.603 266.031,270.297 266.129,269.241 267.451 M97.448 267.375 C 97.264 267.672,97.251 268.052,97.418 268.219 C 97.585 268.386,97.722 268.257,97.722 267.932 C 97.722 267.608,97.974 267.342,98.282 267.342 C 98.590 267.342,98.716 267.672,98.561 268.075 C 98.373 268.566,98.523 268.716,99.013 268.528 C 99.977 268.158,99.946 267.527,98.946 267.143 C 97.890 266.737,97.837 266.746,97.448 267.375 M266.329 267.335 C 266.329 267.685,267.520 268.354,268.143 268.354 C 268.834 268.354,268.185 267.416,267.342 267.195 C 266.785 267.049,266.329 267.112,266.329 267.335 M96.203 268.807 C 96.203 269.055,95.842 269.397,95.402 269.566 C 94.313 269.984,94.177 269.958,94.177 269.337 C 94.177 269.042,94.405 268.942,94.684 269.114 C 94.962 269.286,95.190 269.186,95.190 268.891 C 95.190 268.596,95.418 268.354,95.696 268.354 C 95.975 268.354,96.203 268.558,96.203 268.807 M266.035 268.795 C 266.230 269.110,266.172 269.367,265.907 269.367 C 265.642 269.367,265.303 269.684,265.155 270.071 C 264.966 270.563,265.259 270.753,266.131 270.704 C 267.504 270.626,267.700 268.888,266.385 268.455 C 265.959 268.314,265.821 268.448,266.035 268.795 M268.031 271.646 C 268.381 272.557,267.780 272.641,266.937 271.797 C 266.603 271.463,266.342 271.406,266.357 271.671 C 266.397 272.358,269.367 274.619,269.367 273.963 C 269.367 273.663,269.139 273.418,268.861 273.418 C 268.582 273.418,268.354 273.165,268.354 272.857 C 268.354 272.538,268.724 272.439,269.212 272.626 C 269.964 272.914,269.954 272.827,269.134 271.921 C 268.025 270.696,267.629 270.597,268.031 271.646 M337.491 276.015 C 336.735 278.967,333.698 285.180,332.714 285.789 C 331.802 286.352,334.101 279.559,335.986 276.119 C 338.351 271.806,338.574 271.790,337.491 276.015 M271.899 273.442 C 271.899 273.767,271.576 273.908,271.181 273.757 C 270.481 273.488,269.588 274.820,270.115 275.347 C 270.260 275.493,270.380 275.346,270.380 275.021 C 270.380 274.696,270.623 274.430,270.920 274.430 C 271.238 274.430,271.329 274.900,271.140 275.570 C 270.887 276.468,270.934 276.549,271.359 275.949 C 271.833 275.282,271.957 275.280,272.378 275.936 C 272.682 276.409,272.678 276.793,272.366 276.986 C 272.096 277.153,272.389 277.729,273.017 278.265 C 273.867 278.991,273.989 279.019,273.492 278.377 C 273.125 277.901,272.980 277.261,273.171 276.952 C 273.361 276.644,273.116 275.949,272.627 275.408 C 272.137 274.867,271.889 274.271,272.076 274.084 C 272.263 273.898,272.768 274.184,273.198 274.721 C 273.950 275.658,273.959 275.653,273.443 274.585 C 272.810 273.275,271.899 272.601,271.899 273.442 M270.372 277.342 C 270.358 278.035,269.427 279.216,269.130 278.919 C 268.731 278.520,269.366 276.962,269.928 276.962 C 270.176 276.962,270.376 277.133,270.372 277.342 M271.941 279.030 C 272.521 279.610,272.861 280.220,272.695 280.385 C 272.530 280.550,272.037 280.247,271.599 279.710 C 270.914 278.870,270.842 278.858,271.082 279.620 C 271.235 280.108,271.135 280.506,270.859 280.506 C 270.582 280.506,270.730 281.076,271.186 281.772 C 271.642 282.468,271.816 283.038,271.572 283.038 C 270.820 283.038,269.995 281.295,270.126 279.983 C 270.371 277.526,270.415 277.503,271.941 279.030 M98.714 279.723 C 99.667 280.871,99.148 282.278,97.770 282.278 C 96.005 282.278,95.156 280.660,96.426 279.717 C 97.655 278.805,97.953 278.805,98.714 279.723 M97.565 289.391 C 97.996 289.822,98.218 290.305,98.059 290.464 C 97.767 290.756,96.203 289.435,96.203 288.897 C 96.203 288.385,96.761 288.587,97.565 289.391 " stroke="none" fill="#000000" fill-rule="evenodd"></path></g></svg>